<?xml version="1.0" encoding="iso-8859-1"?>
<!-- Generator: Adobe Illustrator 19.0.0, SVG Export Plug-In . SVG Version: 6.00 Build 0)  -->
<svg version="1.1" id="Capa_1" xmlns="http://www.w3.org/2000/svg" xmlns:xlink="http://www.w3.org/1999/xlink" x="0px" y="0px"
	 viewBox="0 0 480 480" style="enable-background:new 0 0 480 480;" xml:space="preserve">
<g>
	<g>
		<g>
			<path d="M0,176h48V48h128V0H0V176z M16,16h144v16H32v128H16V16z"/>
			<path d="M304,0v48h128v128h48V0H304z M464,160h-16V32H320V16h144V160z"/>
			<path d="M48,304H0v176h176v-48H48V304z M160,448v16H16V320h16v128H160z"/>
			<path d="M432,432H304v48h176V304h-48V432z M448,320h16v144H320v-16h128V320z"/>
		</g>
	</g>
</g>
<g>
</g>
<g>
</g>
<g>
</g>
<g>
</g>
<g>
</g>
<g>
</g>
<g>
</g>
<g>
</g>
<g>
</g>
<g>
</g>
<g>
</g>
<g>
</g>
<g>
</g>
<g>
</g>
<g>
</g>
</svg>
